<?xml version="1.0" encoding="iso-8859-1"?>
<!-- Generator: Adobe Illustrator 25.1.0, SVG Export Plug-In . SVG Version: 6.00 Build 0)  -->
<svg version="1.1" id="Ebene_1" xmlns="http://www.w3.org/2000/svg" xmlns:xlink="http://www.w3.org/1999/xlink" x="0px" y="0px"
	 viewBox="0 0 184.252 41.102" style="enable-background:new 0 0 184.252 41.102;" xml:space="preserve">
<style type="text/css">
	.st0{fill:#FFFFFF;}
</style>
<g>
	<path class="st0" d="M0.732,33.601L15.196,17.31H1.808v-5.753H25.25v5.753L10.787,33.601h15.485v5.753H0.732V33.601z"/>
	<path class="st0" d="M30.358,0.964h7.635v14.463h0.161c0.968-1.577,2.205-2.742,3.71-3.495s2.975-1.129,4.409-1.129
		c2.043,0,3.718,0.278,5.027,0.833c1.308,0.556,2.339,1.327,3.092,2.312c0.753,0.986,1.281,2.187,1.586,3.603
		c0.304,1.417,0.457,2.984,0.457,4.705v17.098H48.8v-15.7c0-2.293-0.368-4.005-1.102-5.134c-0.735-1.129-1.999-1.694-3.791-1.694
		c-2.079,0-3.584,0.619-4.516,1.855c-0.933,1.237-1.398,3.271-1.398,6.103v14.57h-7.635V0.964z"/>
	<path class="st0" d="M62.241,0.964h7.635v13.979h0.107c0.932-1.433,2.195-2.481,3.791-3.145c1.595-0.663,3.253-0.995,4.974-0.995
		c1.398,0,2.777,0.288,4.14,0.86c1.362,0.574,2.59,1.452,3.684,2.635c1.093,1.183,1.98,2.698,2.661,4.543
		c0.681,1.847,1.021,4.041,1.021,6.586c0,2.546-0.341,4.741-1.021,6.587c-0.681,1.847-1.568,3.369-2.661,4.57
		c-1.094,1.201-2.321,2.088-3.684,2.661s-2.742,0.86-4.14,0.86c-2.043,0-3.872-0.332-5.484-0.995
		c-1.613-0.662-2.832-1.765-3.656-3.307H69.5v3.549h-7.259V0.964z M82.619,25.481c0-1.183-0.126-2.312-0.376-3.387
		c-0.251-1.076-0.645-2.025-1.183-2.85c-0.538-0.824-1.219-1.479-2.043-1.963c-0.825-0.484-1.792-0.726-2.903-0.726
		c-1.147,0-2.124,0.242-2.93,0.726s-1.479,1.139-2.017,1.963c-0.538,0.825-0.932,1.774-1.183,2.85
		c-0.251,1.075-0.376,2.204-0.376,3.387c0,1.147,0.125,2.259,0.376,3.334c0.25,1.075,0.645,2.025,1.183,2.85
		c0.538,0.825,1.21,1.479,2.017,1.963c0.807,0.483,1.783,0.726,2.93,0.726c1.111,0,2.079-0.242,2.903-0.726
		c0.824-0.484,1.506-1.138,2.043-1.963c0.538-0.824,0.932-1.774,1.183-2.85C82.493,27.74,82.619,26.629,82.619,25.481z"/>
</g>
<g>
	<path class="st0" d="M98.323,12.84h-3.15v-1.178h5.016v1.106l-3.418,4.087h3.508v1.178h-5.373v-1.106L98.323,12.84z"/>
	<path class="st0" d="M102.322,16.928c0.189,0.184,0.464,0.276,0.82,0.276c0.256,0,0.477-0.064,0.661-0.192
		c0.184-0.128,0.297-0.263,0.339-0.406h1.115c-0.179,0.553-0.452,0.949-0.821,1.187c-0.368,0.238-0.814,0.357-1.338,0.357
		c-0.363,0-0.69-0.058-0.982-0.174c-0.291-0.116-0.538-0.281-0.74-0.495c-0.202-0.214-0.358-0.47-0.469-0.768
		s-0.165-0.625-0.165-0.982c0-0.345,0.057-0.666,0.17-0.963c0.112-0.298,0.273-0.555,0.481-0.772s0.457-0.388,0.745-0.513
		c0.289-0.125,0.608-0.188,0.96-0.188c0.393,0,0.734,0.076,1.026,0.228c0.291,0.152,0.53,0.355,0.718,0.611s0.323,0.547,0.406,0.875
		s0.113,0.669,0.089,1.026h-3.328C102.027,16.446,102.131,16.743,102.322,16.928z M103.754,14.5c-0.151-0.167-0.382-0.25-0.691-0.25
		c-0.202,0-0.37,0.035-0.504,0.103s-0.241,0.153-0.321,0.254c-0.081,0.101-0.137,0.208-0.17,0.321
		c-0.032,0.113-0.052,0.214-0.058,0.303h2.062C104.012,14.911,103.906,14.667,103.754,14.5z"/>
	<path class="st0" d="M107.292,13.42v0.643h0.027c0.16-0.268,0.368-0.463,0.624-0.584c0.256-0.122,0.518-0.183,0.786-0.183
		c0.339,0,0.616,0.046,0.834,0.138c0.217,0.092,0.388,0.22,0.513,0.384s0.213,0.363,0.264,0.598
		c0.051,0.235,0.076,0.495,0.076,0.781v2.838h-1.268v-2.606c0-0.381-0.06-0.665-0.179-0.852c-0.119-0.188-0.33-0.281-0.634-0.281
		c-0.345,0-0.595,0.103-0.749,0.308c-0.155,0.206-0.232,0.543-0.232,1.013v2.418h-1.268V13.42H107.292z"/>
	<path class="st0" d="M113.914,13.42v0.848h-0.929v2.285c0,0.214,0.036,0.357,0.107,0.428c0.071,0.072,0.214,0.107,0.429,0.107
		c0.071,0,0.14-0.003,0.205-0.009c0.065-0.006,0.128-0.015,0.188-0.026v0.981c-0.107,0.018-0.227,0.03-0.357,0.036
		s-0.259,0.009-0.384,0.009c-0.196,0-0.382-0.013-0.558-0.04s-0.33-0.079-0.464-0.156c-0.134-0.077-0.239-0.188-0.316-0.33
		c-0.078-0.143-0.116-0.33-0.116-0.562v-2.722h-0.768V13.42h0.768v-1.383h1.267v1.383H113.914z"/>
	<path class="st0" d="M115.726,13.42v0.856h0.018c0.06-0.143,0.141-0.275,0.241-0.397c0.102-0.122,0.218-0.226,0.349-0.312
		c0.131-0.086,0.271-0.153,0.419-0.201c0.148-0.047,0.304-0.071,0.464-0.071c0.084,0,0.176,0.015,0.277,0.044v1.178
		c-0.06-0.012-0.131-0.022-0.215-0.031c-0.083-0.009-0.163-0.014-0.24-0.014c-0.232,0-0.429,0.039-0.59,0.116
		c-0.16,0.078-0.29,0.183-0.388,0.317c-0.099,0.134-0.168,0.29-0.21,0.468c-0.042,0.179-0.062,0.372-0.062,0.58v2.08h-1.268V13.42
		H115.726z"/>
	<path class="st0" d="M118.162,14.099c0.131-0.196,0.298-0.354,0.5-0.473s0.43-0.204,0.683-0.254
		c0.253-0.05,0.507-0.076,0.763-0.076c0.232,0,0.468,0.017,0.705,0.049c0.238,0.033,0.455,0.097,0.651,0.192
		c0.196,0.095,0.357,0.228,0.482,0.397c0.125,0.169,0.188,0.394,0.188,0.674v2.4c0,0.208,0.012,0.408,0.035,0.598
		c0.024,0.19,0.065,0.333,0.125,0.428h-1.285c-0.023-0.071-0.043-0.144-0.058-0.219c-0.015-0.074-0.025-0.15-0.031-0.228
		c-0.202,0.208-0.44,0.354-0.714,0.438c-0.273,0.083-0.554,0.125-0.839,0.125c-0.221,0-0.426-0.027-0.616-0.081
		s-0.356-0.137-0.499-0.25c-0.144-0.113-0.255-0.255-0.335-0.428c-0.08-0.172-0.121-0.378-0.121-0.616
		c0-0.262,0.047-0.478,0.139-0.647s0.211-0.305,0.357-0.406c0.146-0.101,0.312-0.177,0.499-0.228c0.188-0.05,0.377-0.09,0.567-0.121
		c0.19-0.029,0.378-0.053,0.562-0.071c0.185-0.018,0.349-0.044,0.491-0.08s0.256-0.088,0.339-0.156
		c0.084-0.068,0.122-0.168,0.116-0.299c0-0.137-0.022-0.246-0.066-0.326c-0.045-0.08-0.104-0.143-0.179-0.187
		c-0.074-0.045-0.161-0.075-0.259-0.089c-0.099-0.015-0.204-0.022-0.317-0.022c-0.25,0-0.446,0.054-0.589,0.161
		s-0.226,0.286-0.25,0.536h-1.267C117.957,14.542,118.031,14.295,118.162,14.099z M120.665,15.888
		c-0.08,0.027-0.166,0.049-0.259,0.067c-0.092,0.018-0.188,0.033-0.29,0.045c-0.101,0.012-0.202,0.027-0.303,0.044
		c-0.096,0.018-0.189,0.042-0.281,0.071c-0.093,0.03-0.173,0.07-0.241,0.121c-0.068,0.051-0.123,0.115-0.165,0.192
		c-0.042,0.078-0.062,0.176-0.062,0.294c0,0.113,0.021,0.208,0.062,0.286c0.042,0.078,0.099,0.138,0.17,0.183
		c0.071,0.044,0.154,0.076,0.25,0.094c0.095,0.018,0.193,0.027,0.294,0.027c0.25,0,0.443-0.042,0.58-0.125
		c0.137-0.083,0.238-0.183,0.304-0.299c0.065-0.116,0.105-0.233,0.12-0.353c0.015-0.119,0.022-0.214,0.022-0.285v-0.473
		C120.812,15.824,120.746,15.861,120.665,15.888z"/>
	<path class="st0" d="M124.418,11.662v6.372h-1.268v-6.372H124.418z"/>
	<path class="st0" d="M128.095,15.053v1.089h-2.687v-1.089H128.095z"/>
	<path class="st0" d="M134.654,18.034v-0.643h-0.026c-0.161,0.268-0.369,0.461-0.625,0.58s-0.518,0.179-0.785,0.179
		c-0.34,0-0.617-0.045-0.835-0.134c-0.217-0.089-0.388-0.215-0.513-0.379s-0.213-0.363-0.264-0.598
		c-0.051-0.235-0.076-0.495-0.076-0.781V13.42h1.268v2.606c0,0.381,0.06,0.665,0.179,0.852s0.33,0.281,0.634,0.281
		c0.345,0,0.595-0.103,0.749-0.308c0.155-0.205,0.232-0.542,0.232-1.013V13.42h1.268v4.614H134.654z"/>
	<path class="st0" d="M138.027,13.42v0.643h0.027c0.16-0.268,0.368-0.463,0.624-0.584c0.256-0.122,0.518-0.183,0.786-0.183
		c0.339,0,0.616,0.046,0.834,0.138c0.217,0.092,0.388,0.22,0.513,0.384s0.213,0.363,0.264,0.598
		c0.051,0.235,0.076,0.495,0.076,0.781v2.838h-1.268v-2.606c0-0.381-0.06-0.665-0.179-0.852c-0.119-0.188-0.33-0.281-0.634-0.281
		c-0.345,0-0.595,0.103-0.749,0.308c-0.155,0.206-0.232,0.543-0.232,1.013v2.418h-1.268V13.42H138.027z"/>
	<path class="st0" d="M145.39,17.445c-0.148,0.25-0.343,0.43-0.584,0.54c-0.241,0.11-0.514,0.166-0.816,0.166
		c-0.346,0-0.649-0.067-0.911-0.201c-0.262-0.134-0.477-0.315-0.646-0.544c-0.17-0.229-0.298-0.492-0.384-0.79
		s-0.13-0.607-0.13-0.928c0-0.309,0.044-0.608,0.13-0.897s0.214-0.543,0.384-0.763c0.17-0.22,0.382-0.397,0.638-0.531
		s0.554-0.201,0.893-0.201c0.273,0,0.534,0.058,0.781,0.174c0.247,0.116,0.441,0.287,0.584,0.513h0.019v-2.32h1.267v6.372h-1.204
		v-0.589H145.39z M145.337,15.165c-0.036-0.175-0.098-0.33-0.184-0.464c-0.086-0.134-0.197-0.242-0.335-0.326
		c-0.137-0.083-0.309-0.125-0.518-0.125c-0.208,0-0.384,0.042-0.526,0.125c-0.143,0.083-0.257,0.193-0.344,0.331
		c-0.086,0.137-0.148,0.293-0.187,0.468c-0.039,0.176-0.059,0.358-0.059,0.549c0,0.179,0.021,0.357,0.062,0.536
		c0.042,0.178,0.108,0.338,0.201,0.478c0.092,0.14,0.208,0.253,0.348,0.339c0.14,0.086,0.308,0.129,0.504,0.129
		c0.209,0,0.383-0.042,0.522-0.125c0.14-0.083,0.251-0.195,0.335-0.334c0.083-0.14,0.143-0.299,0.179-0.478
		c0.035-0.178,0.053-0.363,0.053-0.553S145.372,15.34,145.337,15.165z"/>
</g>
<g>
	<path class="st0" d="M96.717,22.371v2.445h2.579v-2.445h1.401v6.372h-1.401v-2.748h-2.579v2.748h-1.4v-6.372H96.717z"/>
	<path class="st0" d="M101.822,25.437c0.113-0.3,0.273-0.556,0.481-0.768c0.209-0.211,0.458-0.374,0.75-0.49
		c0.291-0.116,0.619-0.174,0.981-0.174c0.363,0,0.692,0.058,0.986,0.174c0.295,0.116,0.546,0.279,0.754,0.49
		c0.208,0.212,0.369,0.468,0.482,0.768c0.112,0.301,0.169,0.636,0.169,1.004c0,0.369-0.057,0.702-0.169,1
		c-0.113,0.298-0.274,0.552-0.482,0.763c-0.208,0.212-0.459,0.374-0.754,0.486c-0.294,0.113-0.623,0.17-0.986,0.17
		c-0.362,0-0.69-0.057-0.981-0.17c-0.292-0.112-0.541-0.274-0.75-0.486c-0.208-0.211-0.368-0.465-0.481-0.763s-0.17-0.631-0.17-1
		C101.652,26.072,101.709,25.737,101.822,25.437z M102.974,26.98c0.035,0.176,0.097,0.334,0.183,0.474s0.201,0.251,0.344,0.334
		c0.143,0.084,0.321,0.125,0.535,0.125c0.215,0,0.395-0.041,0.54-0.125c0.146-0.083,0.262-0.194,0.349-0.334
		c0.086-0.14,0.146-0.298,0.183-0.474c0.035-0.175,0.054-0.355,0.054-0.54c0-0.184-0.019-0.365-0.054-0.544
		c-0.036-0.179-0.097-0.336-0.183-0.473c-0.087-0.137-0.203-0.249-0.349-0.335s-0.325-0.13-0.54-0.13
		c-0.214,0-0.393,0.044-0.535,0.13s-0.258,0.198-0.344,0.335s-0.147,0.294-0.183,0.473c-0.036,0.179-0.054,0.36-0.054,0.544
		C102.92,26.625,102.938,26.806,102.974,26.98z"/>
	<path class="st0" d="M109.452,24.959c-0.202,0-0.372,0.047-0.509,0.139c-0.137,0.093-0.249,0.211-0.335,0.357
		c-0.086,0.146-0.147,0.307-0.183,0.481c-0.036,0.176-0.054,0.35-0.054,0.522c0,0.166,0.018,0.336,0.054,0.509
		c0.035,0.172,0.094,0.328,0.174,0.468c0.08,0.141,0.188,0.255,0.326,0.344c0.137,0.09,0.303,0.134,0.499,0.134
		c0.304,0,0.537-0.084,0.701-0.254c0.163-0.17,0.266-0.397,0.308-0.683h1.223c-0.083,0.612-0.321,1.08-0.714,1.401
		s-0.896,0.481-1.509,0.481c-0.345,0-0.661-0.058-0.95-0.174c-0.288-0.116-0.534-0.278-0.736-0.486s-0.359-0.457-0.473-0.745
		c-0.113-0.289-0.17-0.605-0.17-0.951c0-0.356,0.053-0.688,0.156-0.994c0.104-0.307,0.258-0.571,0.46-0.795
		c0.202-0.223,0.449-0.396,0.74-0.521c0.292-0.125,0.625-0.188,1-0.188c0.273,0,0.537,0.035,0.79,0.106
		c0.252,0.071,0.479,0.181,0.678,0.326s0.361,0.327,0.486,0.544c0.125,0.218,0.196,0.475,0.215,0.772h-1.241
		C110.306,25.225,109.993,24.959,109.452,24.959z"/>
	<path class="st0" d="M113.638,22.371v2.401h0.027c0.16-0.269,0.365-0.463,0.615-0.585s0.494-0.183,0.732-0.183
		c0.339,0,0.616,0.046,0.834,0.138c0.217,0.093,0.388,0.221,0.513,0.384c0.125,0.164,0.213,0.363,0.264,0.599
		c0.051,0.234,0.076,0.495,0.076,0.78v2.838h-1.268v-2.605c0-0.381-0.06-0.665-0.179-0.853s-0.33-0.281-0.634-0.281
		c-0.345,0-0.595,0.103-0.749,0.308c-0.155,0.206-0.232,0.543-0.232,1.014v2.418h-1.268v-6.372H113.638z"/>
	<path class="st0" d="M118.729,27.597c0.056,0.098,0.129,0.179,0.218,0.241c0.09,0.062,0.192,0.108,0.309,0.138
		c0.116,0.03,0.236,0.045,0.361,0.045c0.089,0,0.183-0.011,0.281-0.031c0.098-0.021,0.188-0.054,0.268-0.098
		c0.08-0.045,0.147-0.104,0.2-0.179c0.054-0.074,0.081-0.168,0.081-0.281c0-0.19-0.127-0.333-0.38-0.429
		c-0.253-0.095-0.605-0.19-1.058-0.285c-0.185-0.042-0.364-0.091-0.539-0.147c-0.176-0.057-0.332-0.131-0.469-0.223
		c-0.137-0.093-0.247-0.209-0.33-0.349c-0.084-0.14-0.125-0.311-0.125-0.513c0-0.298,0.058-0.542,0.174-0.732s0.269-0.34,0.46-0.45
		c0.189-0.11,0.404-0.188,0.642-0.232c0.238-0.044,0.482-0.066,0.732-0.066s0.492,0.023,0.728,0.071
		c0.234,0.048,0.444,0.128,0.629,0.241c0.185,0.112,0.338,0.263,0.46,0.45c0.121,0.188,0.194,0.424,0.218,0.71h-1.204
		c-0.019-0.244-0.11-0.409-0.277-0.496c-0.166-0.086-0.362-0.129-0.589-0.129c-0.071,0-0.148,0.004-0.231,0.014
		c-0.084,0.009-0.159,0.028-0.228,0.058s-0.127,0.073-0.175,0.129c-0.047,0.057-0.071,0.133-0.071,0.228
		c0,0.113,0.042,0.206,0.125,0.277c0.084,0.071,0.192,0.129,0.326,0.174s0.287,0.085,0.459,0.12
		c0.173,0.036,0.349,0.075,0.527,0.116c0.184,0.042,0.364,0.093,0.54,0.152c0.175,0.059,0.331,0.138,0.468,0.236
		c0.137,0.098,0.247,0.22,0.33,0.365c0.084,0.146,0.125,0.326,0.125,0.54c0,0.304-0.061,0.558-0.183,0.764
		c-0.122,0.205-0.281,0.37-0.478,0.495s-0.421,0.213-0.674,0.263c-0.253,0.051-0.51,0.076-0.771,0.076
		c-0.268,0-0.53-0.026-0.786-0.08s-0.483-0.143-0.683-0.268s-0.362-0.29-0.49-0.496c-0.128-0.205-0.198-0.462-0.21-0.771h1.205
		C118.645,27.381,118.673,27.498,118.729,27.597z"/>
	<path class="st0" d="M124.659,24.959c-0.202,0-0.372,0.047-0.509,0.139c-0.137,0.093-0.249,0.211-0.335,0.357
		c-0.086,0.146-0.147,0.307-0.183,0.481c-0.036,0.176-0.054,0.35-0.054,0.522c0,0.166,0.018,0.336,0.054,0.509
		c0.035,0.172,0.094,0.328,0.174,0.468c0.08,0.141,0.188,0.255,0.326,0.344c0.137,0.09,0.303,0.134,0.499,0.134
		c0.304,0,0.537-0.084,0.701-0.254c0.163-0.17,0.266-0.397,0.308-0.683h1.223c-0.083,0.612-0.321,1.08-0.714,1.401
		s-0.896,0.481-1.509,0.481c-0.345,0-0.661-0.058-0.95-0.174c-0.288-0.116-0.534-0.278-0.736-0.486s-0.359-0.457-0.473-0.745
		c-0.113-0.289-0.17-0.605-0.17-0.951c0-0.356,0.053-0.688,0.156-0.994c0.104-0.307,0.258-0.571,0.46-0.795
		c0.202-0.223,0.449-0.396,0.74-0.521c0.292-0.125,0.625-0.188,1-0.188c0.273,0,0.537,0.035,0.79,0.106
		c0.252,0.071,0.479,0.181,0.678,0.326s0.361,0.327,0.486,0.544c0.125,0.218,0.196,0.475,0.215,0.772h-1.241
		C125.513,25.225,125.2,24.959,124.659,24.959z"/>
	<path class="st0" d="M128.845,22.371v2.401h0.027c0.16-0.269,0.365-0.463,0.615-0.585s0.494-0.183,0.732-0.183
		c0.339,0,0.616,0.046,0.834,0.138c0.217,0.093,0.388,0.221,0.513,0.384c0.125,0.164,0.213,0.363,0.264,0.599
		c0.051,0.234,0.076,0.495,0.076,0.78v2.838h-1.268v-2.605c0-0.381-0.06-0.665-0.179-0.853s-0.33-0.281-0.634-0.281
		c-0.345,0-0.595,0.103-0.749,0.308c-0.155,0.206-0.232,0.543-0.232,1.014v2.418h-1.268v-6.372H128.845z"/>
	<path class="st0" d="M135.993,28.743v-0.643h-0.026c-0.161,0.268-0.369,0.461-0.625,0.58s-0.518,0.179-0.785,0.179
		c-0.34,0-0.617-0.045-0.835-0.134c-0.217-0.089-0.388-0.216-0.513-0.379c-0.125-0.164-0.213-0.363-0.264-0.599
		c-0.051-0.234-0.076-0.495-0.076-0.78V24.13h1.268v2.605c0,0.381,0.06,0.665,0.179,0.853s0.33,0.281,0.634,0.281
		c0.345,0,0.595-0.103,0.749-0.309c0.155-0.205,0.232-0.542,0.232-1.013V24.13h1.268v4.613H135.993z"/>
	<path class="st0" d="M139.465,22.371v6.372h-1.268v-6.372H139.465z"/>
	<path class="st0" d="M141.73,22.371v2.32h0.018c0.155-0.237,0.365-0.411,0.63-0.521s0.54-0.165,0.825-0.165
		c0.232,0,0.461,0.047,0.688,0.143c0.226,0.095,0.43,0.241,0.611,0.438c0.181,0.196,0.328,0.447,0.441,0.754s0.17,0.671,0.17,1.093
		c0,0.423-0.057,0.787-0.17,1.094s-0.261,0.558-0.441,0.754c-0.182,0.196-0.386,0.342-0.611,0.438
		c-0.227,0.095-0.455,0.143-0.688,0.143c-0.339,0-0.643-0.054-0.91-0.16c-0.268-0.107-0.47-0.289-0.607-0.545h-0.018v0.589h-1.205
		v-6.372H141.73z M143.783,25.879c-0.042-0.179-0.107-0.336-0.196-0.474c-0.089-0.137-0.201-0.245-0.335-0.325
		s-0.296-0.121-0.486-0.121c-0.185,0-0.345,0.041-0.481,0.121s-0.25,0.188-0.34,0.325c-0.089,0.138-0.154,0.295-0.196,0.474
		c-0.041,0.179-0.062,0.365-0.062,0.562c0,0.191,0.021,0.375,0.062,0.554c0.042,0.179,0.107,0.336,0.196,0.473
		c0.09,0.138,0.203,0.246,0.34,0.326s0.297,0.12,0.481,0.12c0.19,0,0.353-0.04,0.486-0.12s0.246-0.188,0.335-0.326
		c0.089-0.137,0.154-0.294,0.196-0.473s0.062-0.362,0.062-0.554C143.846,26.244,143.825,26.058,143.783,25.879z"/>
	<path class="st0" d="M145.952,23.416v-1.045h1.268v1.045H145.952z M147.22,24.13v4.613h-1.268V24.13H147.22z"/>
	<path class="st0" d="M149.486,22.371v2.32h0.018c0.155-0.237,0.365-0.411,0.63-0.521s0.54-0.165,0.825-0.165
		c0.232,0,0.461,0.047,0.688,0.143c0.226,0.095,0.43,0.241,0.611,0.438c0.181,0.196,0.328,0.447,0.441,0.754s0.17,0.671,0.17,1.093
		c0,0.423-0.057,0.787-0.17,1.094s-0.261,0.558-0.441,0.754c-0.182,0.196-0.386,0.342-0.611,0.438
		c-0.227,0.095-0.455,0.143-0.688,0.143c-0.339,0-0.643-0.054-0.91-0.16c-0.268-0.107-0.47-0.289-0.607-0.545h-0.018v0.589h-1.205
		v-6.372H149.486z M151.539,25.879c-0.042-0.179-0.107-0.336-0.196-0.474c-0.089-0.137-0.201-0.245-0.335-0.325
		s-0.296-0.121-0.486-0.121c-0.185,0-0.345,0.041-0.481,0.121s-0.25,0.188-0.34,0.325c-0.089,0.138-0.154,0.295-0.196,0.474
		c-0.041,0.179-0.062,0.365-0.062,0.562c0,0.191,0.021,0.375,0.062,0.554c0.042,0.179,0.107,0.336,0.196,0.473
		c0.09,0.138,0.203,0.246,0.34,0.326s0.297,0.12,0.481,0.12c0.19,0,0.353-0.04,0.486-0.12s0.246-0.188,0.335-0.326
		c0.089-0.137,0.154-0.294,0.196-0.473s0.062-0.362,0.062-0.554C151.602,26.244,151.581,26.058,151.539,25.879z"/>
	<path class="st0" d="M154.975,22.371v6.372h-1.268v-6.372H154.975z"/>
	<path class="st0" d="M156.01,23.416v-1.045h1.268v1.045H156.01z M157.277,24.13v4.613h-1.268V24.13H157.277z"/>
	<path class="st0" d="M158.304,25.437c0.113-0.3,0.273-0.556,0.481-0.768c0.209-0.211,0.458-0.374,0.75-0.49
		c0.291-0.116,0.619-0.174,0.981-0.174c0.363,0,0.692,0.058,0.986,0.174c0.295,0.116,0.546,0.279,0.754,0.49
		c0.208,0.212,0.369,0.468,0.482,0.768c0.112,0.301,0.169,0.636,0.169,1.004c0,0.369-0.057,0.702-0.169,1
		c-0.113,0.298-0.274,0.552-0.482,0.763c-0.208,0.212-0.459,0.374-0.754,0.486c-0.294,0.113-0.623,0.17-0.986,0.17
		c-0.362,0-0.69-0.057-0.981-0.17c-0.292-0.112-0.541-0.274-0.75-0.486c-0.208-0.211-0.368-0.465-0.481-0.763s-0.17-0.631-0.17-1
		C158.134,26.072,158.19,25.737,158.304,25.437z M159.455,26.98c0.035,0.176,0.097,0.334,0.183,0.474s0.201,0.251,0.344,0.334
		c0.143,0.084,0.321,0.125,0.535,0.125c0.215,0,0.395-0.041,0.54-0.125c0.146-0.083,0.262-0.194,0.349-0.334
		c0.086-0.14,0.146-0.298,0.183-0.474c0.035-0.175,0.054-0.355,0.054-0.54c0-0.184-0.019-0.365-0.054-0.544
		c-0.036-0.179-0.097-0.336-0.183-0.473c-0.087-0.137-0.203-0.249-0.349-0.335s-0.325-0.13-0.54-0.13
		c-0.214,0-0.393,0.044-0.535,0.13s-0.258,0.198-0.344,0.335s-0.147,0.294-0.183,0.473c-0.036,0.179-0.054,0.36-0.054,0.544
		C159.401,26.625,159.419,26.806,159.455,26.98z"/>
	<path class="st0" d="M166.264,24.13v0.848h-0.929v2.284c0,0.215,0.036,0.357,0.107,0.429s0.214,0.107,0.429,0.107
		c0.071,0,0.14-0.003,0.205-0.01c0.065-0.006,0.128-0.015,0.188-0.026v0.981c-0.107,0.019-0.227,0.03-0.357,0.036
		s-0.259,0.009-0.384,0.009c-0.196,0-0.382-0.014-0.558-0.04c-0.176-0.027-0.33-0.079-0.464-0.156s-0.239-0.188-0.316-0.33
		c-0.078-0.143-0.116-0.33-0.116-0.562v-2.722h-0.768V24.13h0.768v-1.384h1.267v1.384H166.264z"/>
	<path class="st0" d="M168.138,22.371v2.401h0.027c0.16-0.269,0.365-0.463,0.615-0.585s0.494-0.183,0.732-0.183
		c0.339,0,0.616,0.046,0.834,0.138c0.217,0.093,0.388,0.221,0.513,0.384c0.125,0.164,0.213,0.363,0.264,0.599
		c0.051,0.234,0.076,0.495,0.076,0.78v2.838h-1.268v-2.605c0-0.381-0.06-0.665-0.179-0.853s-0.33-0.281-0.634-0.281
		c-0.345,0-0.595,0.103-0.749,0.308c-0.155,0.206-0.232,0.543-0.232,1.014v2.418h-1.268v-6.372H168.138z"/>
	<path class="st0" d="M173.52,27.637c0.189,0.185,0.464,0.276,0.82,0.276c0.256,0,0.477-0.063,0.661-0.191
		c0.184-0.128,0.297-0.264,0.339-0.406h1.115c-0.179,0.554-0.452,0.949-0.821,1.188c-0.368,0.237-0.814,0.356-1.338,0.356
		c-0.363,0-0.69-0.058-0.982-0.174c-0.291-0.116-0.538-0.281-0.74-0.495c-0.202-0.215-0.358-0.471-0.469-0.768
		c-0.11-0.298-0.165-0.625-0.165-0.982c0-0.345,0.057-0.666,0.17-0.963c0.112-0.298,0.273-0.555,0.481-0.772
		c0.208-0.217,0.457-0.388,0.745-0.513c0.289-0.125,0.608-0.188,0.96-0.188c0.393,0,0.734,0.075,1.026,0.228
		c0.291,0.151,0.53,0.355,0.718,0.611s0.323,0.547,0.406,0.874s0.113,0.67,0.089,1.026h-3.328
		C173.225,27.155,173.328,27.452,173.52,27.637z M174.951,25.209c-0.151-0.166-0.382-0.25-0.691-0.25
		c-0.202,0-0.37,0.035-0.504,0.104s-0.241,0.153-0.321,0.254c-0.081,0.102-0.137,0.208-0.17,0.321
		c-0.032,0.113-0.052,0.214-0.058,0.304h2.062C175.209,25.62,175.104,25.376,174.951,25.209z"/>
	<path class="st0" d="M178.669,22.371v3.418l1.598-1.659h1.499l-1.74,1.695l1.937,2.918h-1.535l-1.267-2.062l-0.491,0.474v1.588
		h-1.268v-6.372H178.669z"/>
</g>
<g>
	<path class="st0" d="M96.717,33.08v5.194h3.106v1.178h-4.507V33.08H96.717z"/>
	<path class="st0" d="M103.598,39.452V38.81h-0.026c-0.161,0.268-0.369,0.461-0.625,0.58s-0.518,0.179-0.785,0.179
		c-0.34,0-0.617-0.045-0.835-0.134c-0.217-0.089-0.388-0.216-0.513-0.379c-0.125-0.164-0.213-0.363-0.264-0.599
		c-0.051-0.234-0.076-0.495-0.076-0.78v-2.838h1.268v2.605c0,0.381,0.06,0.665,0.179,0.853s0.33,0.281,0.634,0.281
		c0.345,0,0.595-0.103,0.749-0.309c0.155-0.205,0.232-0.542,0.232-1.013v-2.418h1.268v4.613H103.598z"/>
	<path class="st0" d="M107.881,35.793h-2.222v-0.954h3.891v0.954l-2.4,2.704h2.57v0.955h-4.239v-0.955L107.881,35.793z"/>
	<path class="st0" d="M111.755,38.346c0.189,0.185,0.464,0.276,0.82,0.276c0.256,0,0.477-0.063,0.661-0.191
		c0.184-0.128,0.297-0.264,0.339-0.406h1.115c-0.179,0.554-0.452,0.949-0.821,1.188c-0.368,0.237-0.814,0.356-1.338,0.356
		c-0.363,0-0.69-0.058-0.982-0.174c-0.291-0.116-0.538-0.281-0.74-0.495c-0.202-0.215-0.358-0.471-0.469-0.768
		c-0.11-0.298-0.165-0.625-0.165-0.982c0-0.345,0.057-0.666,0.17-0.963c0.112-0.298,0.273-0.555,0.481-0.772
		c0.208-0.217,0.457-0.388,0.745-0.513c0.289-0.125,0.608-0.188,0.96-0.188c0.393,0,0.734,0.075,1.026,0.228
		c0.291,0.151,0.53,0.355,0.718,0.611s0.323,0.547,0.406,0.874s0.113,0.67,0.089,1.026h-3.328
		C111.46,37.864,111.563,38.161,111.755,38.346z M113.187,35.918c-0.151-0.166-0.382-0.25-0.691-0.25
		c-0.202,0-0.37,0.035-0.504,0.104s-0.241,0.153-0.321,0.254c-0.081,0.102-0.137,0.208-0.17,0.321
		c-0.032,0.113-0.052,0.214-0.058,0.304h2.062C113.444,36.329,113.339,36.085,113.187,35.918z"/>
	<path class="st0" d="M116.725,34.839v0.856h0.018c0.06-0.143,0.141-0.275,0.241-0.397c0.102-0.122,0.218-0.226,0.349-0.312
		c0.131-0.086,0.271-0.152,0.419-0.2s0.304-0.071,0.464-0.071c0.084,0,0.176,0.015,0.277,0.044v1.179
		c-0.06-0.012-0.131-0.022-0.215-0.031c-0.083-0.009-0.163-0.014-0.24-0.014c-0.232,0-0.429,0.039-0.59,0.116
		c-0.16,0.077-0.29,0.183-0.388,0.316c-0.099,0.134-0.168,0.29-0.21,0.469s-0.062,0.372-0.062,0.58v2.079h-1.268v-4.613H116.725z"/>
	<path class="st0" d="M120.349,34.839v0.643h0.027c0.16-0.269,0.368-0.463,0.624-0.585s0.518-0.183,0.786-0.183
		c0.339,0,0.616,0.046,0.834,0.138c0.217,0.093,0.388,0.221,0.513,0.384c0.125,0.164,0.213,0.363,0.264,0.599
		c0.051,0.234,0.076,0.495,0.076,0.78v2.838h-1.268v-2.605c0-0.381-0.06-0.665-0.179-0.853s-0.33-0.281-0.634-0.281
		c-0.345,0-0.595,0.103-0.749,0.308c-0.155,0.206-0.232,0.543-0.232,1.014v2.418h-1.268v-4.613H120.349z"/>
</g>
</svg>
